<svg xmlns="http://www.w3.org/2000/svg" xml:space="preserve" width="1587.4" height="1122.52" viewBox="0 0 420 297"><path d="M0 0h-3.339l-5.162-24.358H6.175l.64 3.001H-4.52Z" style="fill:#231f20;fill-opacity:1;fill-rule:nonzero;stroke:none" transform="matrix(.35278 0 0 -.35278 137.412 166.909)"/><path d="M0 0c-.367-1.755-1.448-6.914-8.027-6.914-1.689 0-3.981.37-5.062 2.394-.37.709-.708 1.787-.168 4.386l3.205 15.08h-3.373L-16.562.103c-.776-3.644-.407-5.061.103-6.141 1.584-3.24 5.498-3.88 7.79-3.88 1.755 0 5.532.37 8.569 3.374C2.363-4.116 3.003-1.382 3.276-.068l3.172 15.014H3.174Z" style="fill:#231f20;fill-opacity:1;fill-rule:nonzero;stroke:none" transform="matrix(.35278 0 0 -.35278 152.18 172.181)"/><path d="M0 0h15.555l.637 2.967H4.013l1.724 8.1h11.334l.606 2.833H6.342l1.585 7.591h11.908l.609 2.867H5.162Z" style="fill:#231f20;fill-opacity:1;fill-rule:nonzero;stroke:none" transform="matrix(.35278 0 0 -.35278 172.454 175.502)"/><path d="m0 0-2.631 20.074h-5.97l-5.162-24.358h3.271l4.621 21.796 3.072-21.796H.404l12.654 21.93-4.656-21.93h3.305l5.162 24.358h-5.566z" style="fill:#231f20;fill-opacity:1;fill-rule:nonzero;stroke:none" transform="matrix(.35278 0 0 -.35278 189.338 173.99)"/><path d="M0 0c-.813-3.845-4.727-3.845-5.87-3.845h-4.725l1.585 7.523h4.858C-2.295 3.678.774 3.678 0 0m-1.553-10.964c-.606-2.799-3.037-4.216-5.702-4.216h-5.768l1.786 8.433h5.904c2.967 0 4.286-1.789 3.78-4.217m-1.45 17.409h-8.706l-5.16-24.358h8.871c1.926 0 3.814 0 5.734 1.112.913.541 3.408 2.227 4.116 5.532C2.83-6.613-.373-5.6-1.724-5.193c1.283.438 4.42 1.481 5.299 5.497.404 1.923.031 3.339-.81 4.355C1.584 6.141-.037 6.445-3.003 6.445" style="fill:#231f20;fill-opacity:1;fill-rule:nonzero;stroke:none" transform="matrix(.35278 0 0 -.35278 206.32 169.182)"/><path d="M0 0c-.342-1.652-1.351-5.5-3.883-7.93-1.755-1.686-3.882-2.224-5.87-2.224-1.92 0-3.879.504-4.926 2.224-1.215 2.094-1.081 5.029-.507 7.694 1.044 4.994 3.712 9.952 9.887 9.952C.267 9.716 1.18 5.532 0 0m-4.728 12.549c-2.261 0-5.733-.541-8.839-3.271-3.271-2.867-4.622-6.951-5.197-9.716-1.413-6.681 0-12.585 8.303-12.585 8.669 0 12.653 6.51 14.036 12.989C5.33 8.231 2.022 12.549-4.728 12.549" style="fill:#231f20;fill-opacity:1;fill-rule:nonzero;stroke:none" transform="matrix(.35278 0 0 -.35278 219.993 171.11)"/><path d="M0 0c-.367-1.755-1.448-6.914-8.026-6.914-1.69 0-3.982.37-5.063 2.394-.37.709-.705 1.787-.168 4.386l3.206 15.08h-3.374L-16.562.103c-.776-3.644-.406-5.061.103-6.141 1.584-3.24 5.498-3.88 7.79-3.88 1.755 0 5.532.37 8.569 3.374C2.364-4.116 3.006-1.382 3.277-.068l3.171 15.014H3.174Z" style="fill:#231f20;fill-opacity:1;fill-rule:nonzero;stroke:none" transform="matrix(.35278 0 0 -.35278 233.28 172.181)"/><path d="M0 0c-.441-2.025-1.824-2.901-2.33-3.171-1.046-.54-2.966-.54-3.339-.54h-5.33l1.656 7.659h5.326C-2.666 3.948.842 3.948 0 0m2.027 5.635C.475 6.781-2.091 6.781-3.339 6.781h-8.706l-5.16-24.358h3.339l2.326 10.998h4.253c4.081 0 4.724-1.012 4.386-4.556-.168-1.854-.475-4.823-.267-6.442H.437c-.369 2.699-.167 4.79.1 7.657.305 3.037-.503 4.084-2.696 4.69.776.205 1.92.54 3.205 1.587A7.68 7.68 0 0 1 3.677.674c.404 1.957-.065 3.814-1.65 4.961" style="fill:#231f20;fill-opacity:1;fill-rule:nonzero;stroke:none" transform="matrix(.35278 0 0 -.35278 246.561 169.3)"/><path d="M0 0c-1.217 0-4.42-.1-7.156-1.718-5.262-3.106-7.119-8.843-7.625-11.272-.706-3.438-.436-6.848 1.453-9.277 1.348-1.755 3.712-3.035 8.194-3.035 4.153 0 7.457 1.012 8.979 1.482l2.563 12.014h-8.942l-.606-2.802h5.566l-1.55-7.218c-.814-.239-2.665-.777-5.436-.777-2.425 0-4.789.572-5.972 2.395-1.345 2.125-1.041 5.6-.606 7.659.475 2.293 1.621 5.464 4.255 7.825C-5.299-3.271-3.24-2.665-.947-2.665c3.307 0 4.792-1.55 4.69-3.811h3.674c.14.944.342 2.36-.773 3.879C4.824-.236 1.92 0 0 0" style="fill:#231f20;fill-opacity:1;fill-rule:nonzero;stroke:none" transform="matrix(.35278 0 0 -.35278 258.913 166.766)"/><path d="M0 0c2.099 9.616-.771 16.798-9.946 20.996-7.407 3.427-18.015 5.637-23.764 7.406-3.094.999-4.752 2.21-4.09 5.086.444 2.431 3.206 4.641 8.291 4.641 4.09 0 6.411-1.658 5.527-6.632H4.312C8.291 50.067-5.305 56.256-25.2 56.256c-23.32 0-38.792-9.395-42.219-25.971-2.21-10.282.552-17.688 12.048-21.334l20.998-6.633c2.765-.881 4.753-2.429 4.091-5.413-.663-3.538-4.312-6.521-8.954-6.521-2.983 0-4.753.992-5.637 2.542-.882 1.658-.882 3.869-.441 6.078h-30.283c-4.422-20.776 12.046-26.746 31.278-26.746C-21.772-27.742-4.09-19.562 0 0" style="fill:#231f20;fill-opacity:1;fill-rule:nonzero;stroke:none" transform="matrix(.35278 0 0 -.35278 138.756 143.58)"/><path d="m0 0-16.915-79.8h31.614L31.61 0h-4.92z" style="fill:#231f20;fill-opacity:1;fill-rule:nonzero;stroke:none" transform="matrix(.35278 0 0 -.35278 227.968 124.475)"/><path d="m0 0 39.235 79.8H8.951l-24.868-62.334h-.218l1.877 62.334h-32.163L-40.892 0Z" style="fill:#231f20;fill-opacity:1;fill-rule:nonzero;stroke:none" transform="matrix(.35278 0 0 -.35278 257.431 152.627)"/><path d="m0 0 4.309 20.774h-60.678l-16.909-79.8h61.671l4.422 20.783h-31.388l1.877 8.951h28.072l4.423 20.779h-28.072L-30.396 0Z" style="fill:#231f20;fill-opacity:1;fill-rule:nonzero;stroke:none" transform="matrix(.35278 0 0 -.35278 292.838 131.804)"/><path d="M0 0h24.29c24.54 0 43.437 14.923 48.522 39.017C77.894 62.669 71.262 79.8 39.321 79.8H12.005l19.616 40.228L3.35 79.8H1.854v-.001h-34.616l-9.461-19.404-5.791 19.405h-36.94l42.701 87.577-62.197-88.503h.003l-20.388-29.012-2.958-4.326h-.083l-29.611-42.135 36.21 74.263.446 2.136h-30.945L-168.687 0h30.945l7.625 35.814h.224L-119.173 0h34.262l-15.362 42.222 24.294 31.169 16.018-49.376-35.368-72.536-3.933 8.036h-4.318l5.974-11.605.314-.457-18.25-37.431 21.752 30.953 2.799-5.818h4.249l-4.657 9.219L1.026 75.891-15.058 0h13.954l30.121 61.779.108-.105h3.014c5.083 0 7.626-1.878 8.951-5.086 1.326-3.314.885-8.951-.774-16.687s-3.538-13.371-6.299-16.69c-2.762-3.202-6.081-5.085-11.164-5.085h-3.094l3.023 14.184z" style="fill:#231f20;fill-opacity:1;fill-rule:nonzero;stroke:none" transform="matrix(.35278 0 0 -.35278 197.308 152.627)"/></svg>